<?xml version="1.0" encoding="UTF-8"?>
<svg version="1.1" xmlns="http://www.w3.org/2000/svg" width="369" height="369">
<path d="M0 0 C2.87205691 0.00314097 5.74306134 -0.02029999 8.61499023 -0.0456543 C55.98968436 -0.20878626 98.97796858 19.52661699 132.65209961 52.37817383 C153.71922177 74.05397689 168.20382292 101.29474263 175.65209961 130.44067383 C176.01585693 131.85110962 176.01585693 131.85110962 176.38696289 133.29003906 C179.74390338 147.11754978 180.72715064 160.88945698 180.65209961 175.06567383 C180.64994446 175.80579712 180.64778931 176.54592041 180.64556885 177.30847168 C180.59029364 189.19104303 179.98749633 200.69994575 177.33959961 212.31567383 C177.14624023 213.1798291 176.95288086 214.04398438 176.75366211 214.93432617 C169.0945572 248.05877293 152.53927756 274.906534 129.33959961 299.31567383 C128.47141602 300.26313477 128.47141602 300.26313477 127.58569336 301.22973633 C121.82710115 307.32027746 115.04162925 312.3203504 108.33959961 317.31567383 C107.77805176 317.73751953 107.21650391 318.15936523 106.63793945 318.59399414 C75.57007273 341.58220701 34.83970489 353.14689564 -3.66040039 351.31567383 C-4.79034424 351.2620166 -4.79034424 351.2620166 -5.94311523 351.20727539 C-17.05197446 350.58417868 -27.34849138 348.67591036 -37.9753418 345.34838867 C-48.03442293 342.2889011 -55.3333732 342.35929197 -64.66040039 347.31567383 C-65.51907715 347.74799316 -66.37775391 348.1803125 -67.26245117 348.62573242 C-70.09642693 350.0596042 -72.91099537 351.52652172 -75.72290039 353.00317383 C-77.22385254 353.78785034 -77.22385254 353.78785034 -78.75512695 354.58837891 C-85.53262075 358.14911312 -92.24371522 361.81123455 -98.87548828 365.63671875 C-104.47473942 368.85353598 -109.20918127 370.46041752 -115.66040039 369.31567383 C-119.89772561 366.8658455 -122.75414821 363.81909812 -124.66040039 359.31567383 C-125.3525184 352.57801167 -124.43219635 345.63689228 -123.75024414 338.92504883 C-123.56324079 336.97975116 -123.37639646 335.03443821 -123.18969727 333.08911133 C-122.89384556 330.06506837 -122.59547014 327.04130495 -122.29394531 324.01782227 C-122.00186533 321.07083757 -121.71930075 318.12305481 -121.43774414 315.17504883 C-121.34508774 314.2749408 -121.25243134 313.37483276 -121.15696716 312.44744873 C-120.30193171 304.5946906 -120.30193171 304.5946906 -122.93774414 297.36645508 C-123.4855957 296.79282227 -124.03344727 296.21918945 -124.59790039 295.62817383 C-125.22954102 294.9449707 -125.86118164 294.26176758 -126.51196289 293.55786133 C-128.00539273 291.99926364 -129.50029253 290.44207364 -130.99633789 288.88598633 C-142.07727723 277.10593409 -149.87640819 263.92792724 -156.66040039 249.31567383 C-157.19407227 248.1993457 -157.72774414 247.08301758 -158.27758789 245.93286133 C-161.38296526 239.12677517 -163.74225539 232.23601822 -165.84790039 225.06567383 C-166.20489014 223.87131714 -166.20489014 223.87131714 -166.5690918 222.65283203 C-170.99664804 206.90816898 -172.20951061 191.35717749 -172.09790039 175.06567383 C-172.09485901 174.12167725 -172.09181763 173.17768066 -172.08868408 172.20507812 C-172.02219706 158.24457699 -171.46286336 144.82979394 -167.66040039 131.31567383 C-167.44077637 130.50388672 -167.22115234 129.69209961 -166.99487305 128.85571289 C-163.88704937 117.59012699 -159.73566797 106.83487901 -154.66040039 96.31567383 C-154.35908203 95.68709473 -154.05776367 95.05851562 -153.74731445 94.41088867 C-146.91513188 80.37418764 -137.87414971 68.27124348 -127.16040039 56.96411133 C-125.01313165 54.68934851 -122.94710638 52.3763 -120.91040039 50.00317383 C-119.830056 48.77137929 -118.74691126 47.54203264 -117.66040039 46.31567383 C-116.94110352 45.49583008 -116.94110352 45.49583008 -116.20727539 44.65942383 C-94.6555452 21.58383393 -61.00223177 8.47327114 -30.66040039 2.31567383 C-29.85787842 2.13544678 -29.05535645 1.95521973 -28.22851562 1.76953125 C-18.87072901 -0.10069199 -9.50317564 -0.02165463 0 0 Z M3.16821289 22.3034668 C-28.85829395 22.42785579 -65.06341182 33.28858312 -89.66040039 54.31567383 C-90.32040039 55.30567383 -90.98040039 56.29567383 -91.66040039 57.31567383 C-57.30181764 80.60962823 -15.5007375 85.95814904 25.33959961 84.31567383 C26.41757813 84.27458496 27.49555664 84.23349609 28.60620117 84.19116211 C56.10905949 83.02880798 85.689351 79.65580837 110.33959961 66.31567383 C104.57288841 51.3222247 87.20141918 43.87091234 73.52709961 37.62817383 C50.82190686 27.59369337 28.01634867 22.44315724 3.16821289 22.3034668 Z M-115.50366211 78.17553711 C-115.94726074 78.73740723 -116.39085938 79.29927734 -116.84790039 79.87817383 C-117.3198584 80.45809082 -117.79181641 81.03800781 -118.27807617 81.63549805 C-128.34862234 94.23795212 -138.87159876 108.82439309 -140.66040039 125.31567383 C-138.47110125 132.05290931 -130.21201961 135.10593854 -124.3762207 138.13354492 C-72.84059609 164.20857407 -17.91154369 172.2760351 39.33959961 171.31567383 C40.94327393 171.294646 40.94327393 171.294646 42.5793457 171.27319336 C73.21495641 170.78802532 128.96254257 165.69273087 152.33959961 142.31567383 C152.86543518 123.31047375 141.33812455 100.55852717 129.33959961 86.31567383 C128.67959961 85.65567383 128.01959961 84.99567383 127.33959961 84.31567383 C121.41300576 84.57991687 116.00279115 87.34306846 110.58959961 89.56567383 C78.19876993 102.49848221 44.99517557 104.98598424 10.33959961 104.31567383 C9.43113281 104.30165527 8.52266602 104.28763672 7.58666992 104.27319336 C-29.57413489 103.5748985 -66.94764273 94.34419231 -100.02636719 77.41430664 C-101.22966675 76.8066748 -101.22966675 76.8066748 -102.45727539 76.18676758 C-103.15175781 75.82510498 -103.84624023 75.46344238 -104.56176758 75.09082031 C-109.59620617 73.23131094 -112.08124846 74.11310769 -115.50366211 78.17553711 Z M-146.66040039 151.31567383 C-149.94782447 156.72245988 -148.99774266 163.06818484 -148.97290039 169.19067383 C-148.97207458 169.85818665 -148.97124878 170.52569946 -148.97039795 171.21343994 C-148.93571012 183.40712559 -147.92739698 195.32542846 -145.66040039 207.31567383 C-145.51103027 208.38543457 -145.51103027 208.38543457 -145.35864258 209.47680664 C-144.48384788 214.46384379 -142.67517143 216.90292747 -138.66333008 219.96606445 C-135.30821916 222.22679741 -131.87998668 224.21057752 -128.28540039 226.06567383 C-127.46942383 226.4883252 -126.65344727 226.91097656 -125.81274414 227.34643555 C-83.62593868 248.66842897 -35.69416825 258.20747588 11.33959961 259.31567383 C12.53383545 259.34854492 12.53383545 259.34854492 13.75219727 259.38208008 C56.34958326 260.42720098 97.95826027 252.91746808 136.77709961 235.31567383 C137.67187012 234.92476563 138.56664062 234.53385742 139.48852539 234.13110352 C144.15799433 231.93804529 147.39272336 230.08873565 149.62011719 225.32446289 C151.04708979 221.34036702 152.06935195 217.32427743 152.96459961 213.19067383 C153.17624756 212.23290039 153.38789551 211.27512695 153.60595703 210.28833008 C156.66056135 195.79528322 157.7872248 181.11217322 157.33959961 166.31567383 C151.64072465 166.8772754 147.12755321 169.0852863 142.02709961 171.50317383 C106.79846881 187.66535573 69.25493199 192.58767408 30.77709961 192.44067383 C29.99590759 192.43845825 29.21471558 192.43624268 28.40985107 192.43395996 C23.05282825 192.41626969 17.69631599 192.37498673 12.33959961 192.31567383 C10.60589111 192.29682129 10.60589111 192.29682129 8.8371582 192.27758789 C-41.05482047 191.51013947 -100.72149759 181.42964596 -142.72680664 152.53051758 C-144.56205652 151.1383417 -144.56205652 151.1383417 -146.66040039 151.31567383 Z M-128.66040039 249.31567383 C-124.42153827 263.78774853 -110.96217245 279.66492212 -98.92993164 288.60083008 C-94.56058564 294.50280821 -96.99590186 304.79786425 -97.59790039 311.56567383 C-98.34529018 320.17753295 -98.81121898 328.6687416 -98.66040039 337.31567383 C-90.28344195 334.9313231 -82.98996548 330.92920755 -75.41040039 326.75317383 C-73.52638408 325.72155413 -71.64124435 324.69208294 -69.75445557 323.6655426 C-68.05249361 322.73862505 -66.3539012 321.80552827 -64.65551758 320.87207031 C-58.88249631 317.87215096 -55.10725381 316.82446241 -48.66040039 318.31567383 C-47.40034652 318.76221693 -46.14997274 319.2369523 -44.91040039 319.73754883 C-9.11702317 333.46282882 34.34829313 329.08067412 68.82470703 313.98535156 C81.85214159 307.9775601 93.63085536 299.83290272 104.33959961 290.31567383 C104.9195166 289.80665527 105.49943359 289.29763672 106.09692383 288.77319336 C114.92522811 280.98217502 122.54560028 272.93917405 129.33959961 263.31567383 C128.67959961 262.65567383 128.01959961 261.99567383 127.33959961 261.31567383 C126.21207275 261.72293701 126.21207275 261.72293701 125.06176758 262.13842773 C100.75230746 270.82221523 76.19375864 277.29047521 50.33959961 279.31567383 C49.30730225 279.39809326 49.30730225 279.39809326 48.25415039 279.48217773 C-8.50477218 283.83048841 -70.29354272 277.24370217 -121.84008789 252.17944336 C-124.07437926 251.11923375 -126.34825273 250.19190439 -128.66040039 249.31567383 Z " fill="#FFFFFF" transform="translate(180.660400390625,-0.315673828125)"/>
</svg>
