<?xml version="1.0" encoding="UTF-8"?>
<svg version="1.1" xmlns="http://www.w3.org/2000/svg" width="534" height="436">
<path d="M0 0 C1.61111445 1.51347115 3.21550569 3.03413685 4.8125 4.5625 C5.56144531 5.23667969 6.31039063 5.91085938 7.08203125 6.60546875 C24.78100732 23.12657951 33.17801814 46.3900907 37.8125 69.5625 C37.8125 78.1425 37.8125 86.7225 37.8125 95.5625 C13.7225 95.5625 -10.3675 95.5625 -35.1875 95.5625 C-35.8475 90.2825 -36.5075 85.0025 -37.1875 79.5625 C-41.39745762 63.81414002 -50.25564002 50.49663468 -64.390625 42.0625 C-82.48312998 32.35925711 -102.96312356 31.96906114 -122.71484375 36.34375 C-135.67876598 40.29595757 -146.40928986 47.14149599 -153.16015625 59.0390625 C-159.99778558 72.12371254 -163.42976353 86.32018828 -160.02734375 101.01953125 C-155.49424474 114.74533336 -145.80171034 123.9349576 -133.22387695 130.57983398 C-129.30623756 132.55000473 -125.31832061 134.23392884 -121.23046875 135.81640625 C-120.07849251 136.26279449 -120.07849251 136.26279449 -118.90324402 136.71820068 C-109.47449867 140.30169211 -99.8542596 143.28808524 -90.23114014 146.29946899 C16.53515081 179.77296706 16.53515081 179.77296706 37.94213867 220.30615234 C41.79183899 227.83496852 44.79231495 235.32561025 46.8125 243.5625 C47.11027344 244.71234375 47.40804687 245.8621875 47.71484375 247.046875 C54.77246194 278.39961204 47.93190154 313.00253509 31.8125 340.5625 C26.92017987 348.22552024 21.04950903 354.97123744 14.8125 361.5625 C13.76642578 362.68785156 13.76642578 362.68785156 12.69921875 363.8359375 C-14.24917028 391.91743978 -51.29141605 404.16906537 -89.56243896 405.00427246 C-107.43561467 405.26748678 -124.61413303 404.03072397 -142.1875 400.5625 C-143.00009277 400.41296875 -143.81268555 400.2634375 -144.64990234 400.109375 C-168.82233326 395.61314673 -193.49679374 384.19258588 -210.51953125 366.203125 C-213.46442462 363.30650857 -216.82422106 360.94737052 -220.1875 358.5625 C-220.44015625 359.12710937 -220.6928125 359.69171875 -220.953125 360.2734375 C-231.0273928 378.95546576 -255.4912233 389.38675447 -274.7265625 395.3125 C-338.7111709 413.88777962 -443.76148379 400.5625 -484.1875 400.5625 C-484.1875 258.6625 -484.1875 116.7625 -484.1875 -29.4375 C-290.15541683 -29.4375 -290.15541683 -29.4375 -273.875 -25.125 C-273.03525635 -24.9077124 -272.1955127 -24.6904248 -271.33032227 -24.46655273 C-264.67803552 -22.68760933 -258.37949988 -20.47422453 -252.1875 -17.4375 C-251.28128906 -16.99792969 -250.37507812 -16.55835938 -249.44140625 -16.10546875 C-242.09397419 -12.32232288 -235.66021398 -7.54851911 -229.1875 -2.4375 C-228.54039062 -1.95796875 -227.89328125 -1.4784375 -227.2265625 -0.984375 C-220.97022536 3.89145582 -214.73408999 11.46932002 -211.1875 18.5625 C-208.06660024 17.1823821 -206.00810847 15.60158649 -203.6484375 13.1484375 C-202.99077393 12.47361328 -202.33311035 11.79878906 -201.65551758 11.10351562 C-200.96482178 10.38873047 -200.27412598 9.67394531 -199.5625 8.9375 C-149.95276182 -41.4023669 -54.25015697 -48.00013889 0 0 Z M-404.1875 36.5625 C-404.1875 75.8325 -404.1875 115.1025 -404.1875 155.5625 C-385.1609375 155.6553125 -385.1609375 155.6553125 -365.75 155.75 C-359.7956189 155.79096802 -359.7956189 155.79096802 -353.72094727 155.83276367 C-350.0874596 155.8428117 -350.0874596 155.8428117 -346.45396423 155.84883118 C-344.8655188 155.85336587 -343.27708207 155.86376216 -341.68870544 155.87922668 C-319.29556542 156.08588909 -296.85861989 152.90650787 -279.875 136.875 C-265.96800236 122.05277459 -263.5572068 105.67839799 -263.8515625 86.1640625 C-264.35104618 73.88760879 -268.60189087 62.39362933 -277.16015625 53.3671875 C-289.71664333 42.18973657 -306.12451179 37.28768305 -322.67626953 37.24365234 C-323.57948378 37.23349909 -324.48269802 37.22334583 -325.41328239 37.2128849 C-328.29895571 37.18257017 -331.1845321 37.16518603 -334.0703125 37.1484375 C-335.86711445 37.131476 -337.66390851 37.11365643 -339.46069336 37.0949707 C-346.07787186 37.03211103 -352.69519907 36.98578142 -359.3125 36.9375 C-374.12125 36.81375 -388.93 36.69 -404.1875 36.5625 Z M-221.1875 152.5625 C-222.12661709 153.63009565 -223.01212854 154.74488751 -223.875 155.875 C-232.51154283 165.98388485 -244.05931327 172.5397156 -256.1875 177.5625 C-257.5274113 178.21584518 -258.86377913 178.87694528 -260.1875 179.5625 C-259.8575 180.5525 -259.5275 181.5425 -259.1875 182.5625 C-256.60210446 183.60868331 -254.09236615 184.48520137 -251.4375 185.3125 C-226.69514626 193.58756933 -206.9015358 210.09129186 -195.21728516 233.50683594 C-189.75718191 245.17392914 -187.27102276 257.25830209 -186.6875 270.0625 C-185.89370162 287.12626802 -181.97368089 302.64464549 -169.7578125 315.25390625 C-149.89572986 333.09355798 -123.37047834 340.25492385 -97.1015625 339.8125 C-75.28047624 338.418738 -54.95675886 332.27766192 -39.1875 316.5625 C-38.54941406 315.94761719 -37.91132813 315.33273437 -37.25390625 314.69921875 C-27.83673678 304.90452356 -22.76710916 291.66460736 -22.875 278.1875 C-22.88345947 277.0727832 -22.88345947 277.0727832 -22.89208984 275.93554688 C-23.15035173 264.20380884 -27.37839816 255.63336976 -35.25 247 C-57.52450169 226.03007867 -95.28478213 219.08266282 -123.75991821 210.56451416 C-137.924352 206.32293728 -151.72456242 201.74582248 -165.1875 195.5625 C-166.27466309 195.0665332 -166.27466309 195.0665332 -167.38378906 194.56054688 C-186.49579356 185.7206956 -210.53018718 172.93264782 -219.1875 152.5625 C-219.8475 152.5625 -220.5075 152.5625 -221.1875 152.5625 Z M-404.1875 213.5625 C-404.1875 253.8225 -404.1875 294.0825 -404.1875 335.5625 C-390.801875 335.60375 -377.41625 335.645 -363.625 335.6875 C-359.42837646 335.70570801 -355.23175293 335.72391602 -350.90795898 335.74267578 C-347.08283396 335.7493725 -347.08283396 335.7493725 -343.25770569 335.75338745 C-341.57918735 335.75642019 -339.90067283 335.76337241 -338.22218323 335.77365112 C-314.7622207 335.90989246 -292.25592398 334.02639582 -274.55859375 317.0390625 C-267.04155646 308.98951681 -262.48087268 301.04969135 -259.1875 290.5625 C-258.95933594 289.86769531 -258.73117187 289.17289062 -258.49609375 288.45703125 C-254.23371202 273.04688193 -257.32414297 255.85144448 -264.25 241.75 C-272.25128114 227.92804438 -283.96684886 219.72749447 -299.1875 215.5625 C-310.56584316 213.00941714 -321.99073087 213.30378398 -333.58203125 213.3671875 C-335.39562863 213.37013503 -337.20922772 213.37217109 -339.02282715 213.37329102 C-345.68191103 213.38369605 -352.34095828 213.4116183 -359 213.4375 C-373.911875 213.47875 -388.82375 213.52 -404.1875 213.5625 Z " fill="#FEFEFE" transform="translate(484.1875,31.4375)"/>
</svg>
